<svg width="261" height="61" viewBox="0 0 261 61" fill="none" xmlns="http://www.w3.org/2000/svg">
<path d="M1.43939 8.24597C0.379091 8.55555 -0.22947 9.66607 0.0801133 10.7264L5.12519 28.0049C5.43477 29.0652 6.54529 29.6737 7.60558 29.3642C8.66589 29.0546 9.27445 27.9441 8.96485 26.8838L4.48035 11.5251L19.839 7.04057C20.8993 6.73098 21.5079 5.62046 21.1983 4.56017C20.8887 3.49987 19.7782 2.8913 18.7179 3.20089L1.43939 8.24597ZM256.533 0.370027C251.816 26.6284 226.618 49.3781 183.226 55.2168C139.865 61.0511 78.6361 49.8822 2.96111 8.4119L1.0388 11.9197C77.1874 53.6496 139.287 65.165 183.759 59.181C228.2 53.2013 255.341 29.6299 260.47 1.07715L256.533 0.370027Z" fill="url(#paint0_linear_1132_4677)"/>
<defs>
<linearGradient id="paint0_linear_1132_4677" x1="23.1843" y1="18.1103" x2="260.684" y2="18.1103" gradientUnits="userSpaceOnUse">
<stop stop-color="white"/>
<stop offset="1" stop-color="white" stop-opacity="0"/>
</linearGradient>
</defs>
</svg>
