<svg width="184" height="104" viewBox="0 0 184 104" fill="none" xmlns="http://www.w3.org/2000/svg">
<g filter="url(#filter0_d_1163_1491)">
<rect x="4" width="176" height="96" rx="20" fill="white"/>
<g clip-path="url(#clip0_1163_1491)">
<path fill-rule="evenodd" clip-rule="evenodd" d="M60.1059 37.5745H43.457V45.9338H51.6491C51.9409 45.9338 52.1777 46.1709 52.1777 46.4632V54.5535H60.6346V38.1048C60.6347 38.0352 60.6211 37.9662 60.5946 37.9019C60.5681 37.8376 60.5292 37.7791 60.4801 37.7298C60.431 37.6806 60.3727 37.6415 60.3085 37.6148C60.2443 37.5882 60.1754 37.5745 60.1059 37.5745Z" fill="#8E75FF"/>
<path opacity="0.405" fill-rule="evenodd" clip-rule="evenodd" d="M43.4555 37.5745V45.9338H35.6452C35.5927 45.9337 35.5414 45.918 35.4979 45.8887C35.4543 45.8594 35.4205 45.8177 35.4006 45.7691C35.3807 45.7205 35.3757 45.667 35.3862 45.6155C35.3967 45.5641 35.4223 45.5169 35.4596 45.4799L43.4555 37.5745ZM52.6275 62.4677C52.5903 62.5043 52.5432 62.529 52.492 62.5389C52.4408 62.5488 52.3878 62.5433 52.3397 62.5231C52.2916 62.503 52.2506 62.4691 52.2216 62.4256C52.1927 62.3822 52.1772 62.3312 52.1772 62.279V54.5535H60.634L52.6275 62.4667V62.4677Z" fill="#8E75FF"/>
<path opacity="0.405" d="M43.4561 45.9338H51.9139C52.0588 45.9338 52.1777 46.0519 52.1777 46.198V54.5535H43.9856C43.8454 54.5535 43.711 54.4977 43.6118 54.3985C43.5127 54.2992 43.457 54.1646 43.457 54.0242V45.9338H43.4561Z" fill="#8E75FF"/>
<path fill-rule="evenodd" clip-rule="evenodd" d="M145.913 37.0471C146.386 37.5155 146.943 37.7487 147.587 37.7487C148.251 37.7487 148.819 37.5155 149.292 37.0471C149.764 36.5787 150 36.0271 150 35.3893C150 34.7526 149.764 34.1951 149.292 33.7171C149.072 33.4865 148.807 33.3039 148.514 33.1805C148.221 33.0571 147.905 32.9956 147.587 33C146.943 33 146.386 33.239 145.913 33.7161C145.441 34.1951 145.205 34.7516 145.205 35.3903C145.205 36.0271 145.441 36.5787 145.913 37.0471ZM94.6368 43.1555C94.6368 43.2038 94.5962 43.2445 94.5469 43.2445H91.2274V49.4574C91.2274 49.9751 91.3588 50.3535 91.6197 50.5926C91.8807 50.8316 92.2633 50.9651 92.7659 50.9951C93.2259 51.0232 93.7864 51.0213 94.4483 50.9903L94.5421 50.9855C94.5542 50.9848 94.5662 50.9866 94.5776 50.9908C94.5889 50.995 94.5993 51.0014 94.6081 51.0098C94.6169 51.0181 94.6239 51.0281 94.6286 51.0393C94.6334 51.0504 94.6358 51.0624 94.6358 51.0745V54.3948C94.636 54.4168 94.6279 54.4381 94.6133 54.4546C94.5986 54.471 94.5784 54.4814 94.5566 54.4838L94.4957 54.4906C91.8961 54.7645 90.0571 54.51 88.9805 53.728C87.8846 52.9316 87.3377 51.508 87.3377 49.4574V43.2445H84.8019C84.7783 43.2445 84.7557 43.2351 84.739 43.2184C84.7223 43.2017 84.713 43.1791 84.713 43.1555V39.63C84.713 39.5816 84.7526 39.5409 84.8019 39.5409H87.3367V37.0761C87.3367 37.0045 87.3792 36.9406 87.444 36.9116L91.1027 35.3177C91.1163 35.3116 91.1312 35.3089 91.146 35.31C91.1608 35.3111 91.1752 35.3159 91.1877 35.324C91.2002 35.3321 91.2105 35.3432 91.2176 35.3563C91.2247 35.3694 91.2284 35.3841 91.2283 35.399V39.5409H94.5469C94.5952 39.5409 94.6358 39.5806 94.6358 39.63V43.1555H94.6368ZM101.691 42.1103C102.053 41.1542 102.651 40.4371 103.485 39.959C104.308 39.4899 105.238 39.2431 106.185 39.2429C106.234 39.2429 106.275 39.2826 106.275 39.3329V43.3829C106.275 43.4031 106.271 43.4232 106.262 43.4417C106.254 43.4602 106.242 43.4768 106.227 43.4904C106.212 43.504 106.194 43.5142 106.175 43.5206C106.156 43.5269 106.136 43.5291 106.116 43.5271C104.994 43.4264 103.986 43.6713 103.093 44.2606C102.158 44.8771 101.691 45.9029 101.691 47.3371V54.3861C101.691 54.3979 101.689 54.4095 101.685 54.4204C101.68 54.4313 101.673 54.4411 101.665 54.4494C101.657 54.4577 101.647 54.4642 101.636 54.4686C101.625 54.4731 101.613 54.4753 101.602 54.4751H97.8887C97.8651 54.4751 97.8425 54.4658 97.8258 54.4491C97.8091 54.4324 97.7998 54.4097 97.7998 54.3861V39.629C97.7998 39.5806 97.8394 39.54 97.8887 39.54H101.602C101.65 39.54 101.69 39.5796 101.69 39.629V42.1084L101.691 42.1103ZM120.088 39.5409C120.076 39.5408 120.064 39.543 120.053 39.5474C120.042 39.5519 120.032 39.5584 120.024 39.5667C120.016 39.575 120.009 39.5848 120.005 39.5957C120 39.6065 119.998 39.6182 119.998 39.63V41.3042C118.832 39.8496 117.193 39.1229 115.082 39.1229C113.072 39.1229 111.347 39.8845 109.91 41.4077C108.472 42.9309 107.753 44.7977 107.753 47.008C107.753 49.2184 108.472 51.0851 109.91 52.6084C111.347 54.1316 113.072 54.8932 115.082 54.8932C117.193 54.8932 118.831 54.1664 119.998 52.7129V54.3861C119.998 54.4345 120.038 54.4751 120.088 54.4751H123.799C123.849 54.4751 123.889 54.4355 123.889 54.3861V39.629C123.889 39.6172 123.887 39.6056 123.882 39.5947C123.878 39.5838 123.871 39.574 123.863 39.5657C123.855 39.5574 123.845 39.5509 123.834 39.5465C123.823 39.542 123.811 39.5398 123.799 39.54H120.088V39.5409ZM112.82 50.0545C113.604 50.8316 114.598 51.2196 115.806 51.2196C117.012 51.2196 118.013 50.8258 118.807 50.039C119.601 49.2532 119.998 48.2429 119.998 47.008C119.998 45.7732 119.601 44.7629 118.807 43.9761C118.013 43.1903 117.012 42.7964 115.805 42.7964C114.599 42.7964 113.604 43.1903 112.819 43.9771C112.037 44.7629 111.643 45.7732 111.643 47.008C111.643 48.2429 112.036 49.258 112.82 50.0545ZM141.184 41.4077C139.746 39.8845 138.011 39.1229 135.981 39.1229C133.869 39.1229 132.241 39.8496 131.095 41.3032V39.63C131.095 39.6064 131.085 39.5837 131.069 39.567C131.052 39.5503 131.029 39.5409 131.006 39.5409H127.293C127.269 39.5409 127.247 39.5503 127.23 39.567C127.213 39.5837 127.204 39.6064 127.204 39.63V60.359C127.204 60.4084 127.244 60.449 127.293 60.449H131.006C131.054 60.449 131.095 60.4084 131.095 60.359V52.7129C132.241 54.1664 133.869 54.8932 135.981 54.8932C138.011 54.8932 139.746 54.1316 141.184 52.6084C142.621 51.0851 143.34 49.2184 143.34 47.008C143.34 44.7977 142.621 42.9309 141.184 41.4077ZM132.271 50.0545C133.055 50.8316 134.05 51.2196 135.257 51.2196C136.463 51.2196 137.463 50.8258 138.258 50.039C139.052 49.2532 139.449 48.2429 139.449 47.008C139.449 45.7732 139.052 44.7629 138.258 43.9761C137.463 43.1903 136.463 42.7964 135.257 42.7964C134.05 42.7964 133.055 43.1903 132.271 43.9771C131.487 44.7629 131.095 45.7732 131.095 47.008C131.095 48.2429 131.487 49.258 132.271 50.0545ZM145.746 54.4751C145.722 54.4751 145.7 54.4658 145.683 54.4491C145.667 54.4324 145.657 54.4097 145.657 54.3861V39.629C145.657 39.5806 145.697 39.54 145.746 39.54H149.459C149.508 39.54 149.548 39.5796 149.548 39.629V54.3871C149.548 54.4107 149.538 54.4333 149.522 54.45C149.505 54.4667 149.483 54.4761 149.459 54.4761H145.746V54.4751ZM76.374 44.7532C75.8406 44.5045 75.5748 44.1803 75.5748 43.7826C75.5748 43.4042 75.7401 43.1051 76.0725 42.8864C76.404 42.6677 76.8215 42.5574 77.324 42.5574C78.2875 42.5574 79.0151 42.93 79.508 43.6742C79.5244 43.6994 79.5492 43.7181 79.578 43.727C79.6068 43.7358 79.6378 43.7342 79.6655 43.7226L82.9493 42.2835C82.9607 42.2784 82.9708 42.271 82.9791 42.2617C82.9874 42.2524 82.9937 42.2415 82.9975 42.2297C83.0014 42.2178 83.0027 42.2053 83.0013 42.1929C83 42.1805 82.9961 42.1685 82.9899 42.1577C82.9521 42.0946 82.9134 42.032 82.8739 41.97C82.3125 41.0942 81.5848 40.4409 80.6715 39.9445C79.6665 39.3967 78.5503 39.1229 77.324 39.1229C75.6946 39.1229 74.333 39.5458 73.2362 40.3926C72.1412 41.2384 71.5933 42.3987 71.5933 43.8716C71.5933 44.848 71.86 45.659 72.3925 46.3064C72.9071 46.9403 73.5775 47.4292 74.3378 47.7251C75.1013 48.0232 75.8657 48.2729 76.6301 48.4713C77.3936 48.6706 78.043 48.8951 78.5754 49.1438C79.1079 49.3925 79.3746 49.7158 79.3746 50.1145C79.3746 50.9709 78.6808 51.3987 77.294 51.3987C75.973 51.3987 75.0578 50.9148 74.5485 49.949C74.5281 49.9083 74.4929 49.8769 74.4502 49.8613C74.4074 49.8456 74.3603 49.8469 74.3185 49.8648L71.0444 51.3019C71.0335 51.3067 71.0236 51.3137 71.0154 51.3223C71.0073 51.331 71.0009 51.3413 70.9968 51.3525C70.9926 51.3637 70.9908 51.3756 70.9913 51.3875C70.9919 51.3994 70.9948 51.4111 70.9999 51.4219L71.0367 51.4964C72.1809 53.7609 74.2663 54.8932 77.294 54.8932C79.0229 54.8932 80.4657 54.48 81.6215 53.6545C82.7783 52.8271 83.3562 51.6474 83.3562 50.1145C83.3562 49.0984 83.0894 48.2526 82.557 47.5751C82.0549 46.9214 81.3815 46.4202 80.6116 46.1274C79.8623 45.8432 79.0969 45.6038 78.3194 45.4103C77.5549 45.2206 76.9065 45.0019 76.374 44.7522V44.7532Z" fill="#1D1B84"/>
</g>
</g>
<defs>
<filter id="filter0_d_1163_1491" x="0" y="0" width="184" height="104" filterUnits="userSpaceOnUse" color-interpolation-filters="sRGB">
<feFlood flood-opacity="0" result="BackgroundImageFix"/>
<feColorMatrix in="SourceAlpha" type="matrix" values="0 0 0 0 0 0 0 0 0 0 0 0 0 0 0 0 0 0 127 0" result="hardAlpha"/>
<feOffset dy="4"/>
<feGaussianBlur stdDeviation="2"/>
<feComposite in2="hardAlpha" operator="out"/>
<feColorMatrix type="matrix" values="0 0 0 0 0 0 0 0 0 0 0 0 0 0 0 0 0 0 0.25 0"/>
<feBlend mode="normal" in2="BackgroundImageFix" result="effect1_dropShadow_1163_1491"/>
<feBlend mode="normal" in="SourceGraphic" in2="effect1_dropShadow_1163_1491" result="shape"/>
</filter>
<clipPath id="clip0_1163_1491">
<rect width="115" height="30" fill="white" transform="translate(35 33)"/>
</clipPath>
</defs>
</svg>
