<svg width="184" height="104" viewBox="0 0 184 104" fill="none" xmlns="http://www.w3.org/2000/svg">
<g filter="url(#filter0_d_1162_1148)">
<rect x="4" width="176" height="96" rx="20" fill="white"/>
<g clip-path="url(#clip0_1162_1148)">
<path d="M48.129 37.297V46.3233H39.9046V37.297H36V58.8437H39.9046V50.1105H48.129V58.8437H52.0336V37.297H48.129Z" fill="#33475B"/>
<path d="M64.5295 51.8787C64.5295 52.7422 64.1892 53.5704 63.5834 54.181C62.9776 54.7916 62.1559 55.1346 61.2992 55.1346C60.4425 55.1346 59.6209 54.7916 59.0151 54.181C58.4093 53.5704 58.069 52.7422 58.069 51.8787V42.6499H54.3652V51.8787C54.3652 53.7305 55.0951 55.5065 56.3942 56.816C57.6933 58.1254 59.4553 58.8611 61.2925 58.8611C63.1298 58.8611 64.8918 58.1254 66.1909 56.816C67.49 55.5065 68.2198 53.7305 68.2198 51.8787V42.6499H64.5295V51.8787Z" fill="#33475B"/>
<path d="M91.9716 43.6006C91.9716 41.7089 93.2132 41.1092 94.5734 41.1092C95.6696 41.1092 97.1178 41.95 98.0648 42.97L100.491 40.0892C99.2796 38.4385 96.8232 37.297 94.8126 37.297C90.7951 37.297 87.8891 39.6688 87.8891 43.6006C87.8891 50.8953 96.7352 48.5814 96.7352 52.6636C96.7352 53.9227 95.5223 55.0354 94.1334 55.0354C91.9429 55.0354 91.2332 53.9555 90.2269 52.814L87.5352 55.6351C89.2569 57.7658 91.3805 58.8476 93.9249 58.8476C97.7415 58.8476 100.812 56.4469 100.812 52.6944C100.812 44.5956 91.9659 47.112 91.9659 43.6006" fill="#33475B"/>
<path d="M146.698 55.4017C144.509 55.4017 143.887 54.4472 143.887 52.9855V46.5161H147.289V43.238H143.887V38.9128L140.132 40.6117V53.7896C140.132 57.1603 142.439 58.8591 145.603 58.8591C146.1 58.8682 146.596 58.8282 147.084 58.7395L148 55.34C147.587 55.3689 147.113 55.3978 146.698 55.3978" fill="#33475B"/>
<path d="M78.6272 42.7579C76.7925 42.7579 75.5127 43.2939 74.2749 44.5184V37.4261H70.5654V50.5713C70.5654 55.4923 74.0951 58.863 78.0609 58.863C82.461 58.863 86.3312 55.4325 86.3312 50.8123C86.3312 46.25 82.769 42.7598 78.6272 42.7598V42.7579ZM78.6042 55.1009C77.7718 55.1009 76.9581 54.8521 76.266 54.3859C75.5738 53.9198 75.0344 53.2572 74.7158 52.4821C74.3973 51.7069 74.3139 50.8539 74.4763 50.031C74.6387 49.2081 75.0396 48.4522 75.6282 47.8589C76.2168 47.2656 76.9667 46.8616 77.7831 46.6979C78.5996 46.5342 79.4458 46.6182 80.2149 46.9393C80.9839 47.2604 81.6413 47.8041 82.1037 48.5018C82.5662 49.1994 82.813 50.0196 82.813 50.8586C82.813 51.9837 82.3696 53.0628 81.5803 53.8583C80.791 54.6539 79.7205 55.1009 78.6042 55.1009Z" fill="#33475B"/>
<path d="M118.905 50.6158C118.905 45.9879 115.043 42.5652 110.635 42.5652C106.669 42.5652 103.14 45.9358 103.14 50.8568V64.0097H106.849V56.9078C108.085 58.1303 109.367 58.6683 111.199 58.6683C115.341 58.6683 118.904 55.1801 118.904 50.6158H118.905ZM115.393 50.5695C115.393 51.4086 115.146 52.2287 114.684 52.9264C114.221 53.624 113.564 54.1678 112.795 54.4888C112.026 54.8099 111.18 54.8939 110.363 54.7302C109.547 54.5666 108.797 54.1625 108.208 53.5692C107.62 52.9759 107.219 52.2201 107.056 51.3971C106.894 50.5742 106.977 49.7213 107.296 48.9461C107.614 48.1709 108.154 47.5084 108.846 47.0422C109.538 46.5761 110.352 46.3273 111.184 46.3273C112.3 46.3273 113.371 46.7742 114.16 47.5698C114.95 48.3654 115.393 49.4444 115.393 50.5695Z" fill="#33475B"/>
<path d="M130.89 42.3838V38.6275C131.382 38.3956 131.799 38.0274 132.092 37.5658C132.385 37.1043 132.542 36.5684 132.545 36.0205V35.9337C132.545 35.1666 132.242 34.4309 131.704 33.8884C131.166 33.346 130.436 33.0413 129.675 33.0413H129.589C128.828 33.0413 128.098 33.346 127.56 33.8884C127.022 34.4309 126.719 35.1666 126.719 35.9337V36.0205C126.722 36.5684 126.879 37.1043 127.172 37.5658C127.465 38.0274 127.882 38.3956 128.374 38.6275V42.3838C126.959 42.6021 125.625 43.1935 124.51 44.0981L114.29 36.0745C114.362 35.8099 114.401 35.5371 114.405 35.2626C114.406 34.618 114.217 33.9876 113.863 33.451C113.508 32.9144 113.004 32.4958 112.414 32.2481C111.823 32.0005 111.173 31.9349 110.546 32.0597C109.918 32.1845 109.342 32.494 108.889 32.9491C108.436 33.4043 108.127 33.9846 108.001 34.6166C107.876 35.2487 107.939 35.9041 108.183 36.4999C108.427 37.0958 108.841 37.6054 109.372 37.9642C109.903 38.323 110.528 38.5149 111.168 38.5157C111.727 38.5132 112.276 38.3629 112.759 38.0799L122.824 45.9724C121.92 47.3491 121.448 48.9686 121.47 50.6196C121.492 52.2706 122.008 53.8766 122.949 55.2282L119.888 58.3134C119.64 58.2338 119.382 58.1915 119.122 58.1881C118.597 58.1885 118.084 58.3457 117.648 58.64C117.211 58.9342 116.871 59.3522 116.671 59.8412C116.47 60.3302 116.418 60.8682 116.52 61.3872C116.623 61.9062 116.875 62.3829 117.247 62.7571C117.618 63.1313 118.091 63.3862 118.606 63.4895C119.121 63.5929 119.654 63.54 120.14 63.3377C120.625 63.1353 121.039 62.7926 121.331 62.3527C121.623 61.9129 121.779 61.3957 121.78 60.8665C121.776 60.6046 121.734 60.3447 121.655 60.0952L124.684 57.0427C125.671 57.8086 126.82 58.3366 128.041 58.5862C129.262 58.8358 130.524 58.8003 131.729 58.4826C132.935 58.1648 134.052 57.5732 134.996 56.7529C135.939 55.9327 136.684 54.9057 137.173 53.7505C137.662 52.5954 137.883 51.3427 137.817 50.0885C137.752 48.8343 137.402 47.6118 136.796 46.5147C136.189 45.4175 135.342 44.4748 134.318 43.7588C133.294 43.0428 132.122 42.5725 130.89 42.3838ZM129.635 54.7365C128.806 54.7357 127.997 54.4874 127.308 54.023C126.62 53.5586 126.084 52.8989 125.767 52.1273C125.45 51.3557 125.368 50.5069 125.53 49.688C125.692 48.8691 126.091 48.117 126.677 47.5267C127.263 46.9365 128.009 46.5345 128.822 46.3716C129.634 46.2088 130.476 46.2924 131.242 46.6118C132.007 46.9313 132.661 47.4722 133.122 48.1664C133.582 48.8605 133.828 49.6766 133.828 50.5116C133.828 51.6316 133.387 52.7057 132.601 53.4977C131.815 54.2896 130.75 54.7345 129.639 54.7345" fill="#FF7A59"/>
</g>
</g>
<defs>
<filter id="filter0_d_1162_1148" x="0" y="0" width="184" height="104" filterUnits="userSpaceOnUse" color-interpolation-filters="sRGB">
<feFlood flood-opacity="0" result="BackgroundImageFix"/>
<feColorMatrix in="SourceAlpha" type="matrix" values="0 0 0 0 0 0 0 0 0 0 0 0 0 0 0 0 0 0 127 0" result="hardAlpha"/>
<feOffset dy="4"/>
<feGaussianBlur stdDeviation="2"/>
<feComposite in2="hardAlpha" operator="out"/>
<feColorMatrix type="matrix" values="0 0 0 0 0 0 0 0 0 0 0 0 0 0 0 0 0 0 0.25 0"/>
<feBlend mode="normal" in2="BackgroundImageFix" result="effect1_dropShadow_1162_1148"/>
<feBlend mode="normal" in="SourceGraphic" in2="effect1_dropShadow_1162_1148" result="shape"/>
</filter>
<clipPath id="clip0_1162_1148">
<rect width="112" height="32" fill="white" transform="translate(36 32)"/>
</clipPath>
</defs>
</svg>
