<svg width="34" height="35" viewBox="0 0 34 35" fill="none" xmlns="http://www.w3.org/2000/svg">
<circle cx="17" cy="17.4043" r="17" fill="#0045A5"/>
<g clip-path="url(#clip0_1181_7963)">
<path d="M17 7.65812C20.204 7.65812 20.584 7.67012 21.85 7.72812C25.102 7.87612 26.621 9.41912 26.769 12.6471C26.827 13.9121 26.838 14.2921 26.838 17.4961C26.838 20.7011 26.826 21.0801 26.769 22.3451C26.62 25.5701 25.105 27.1161 21.85 27.2641C20.584 27.3221 20.206 27.3341 17 27.3341C13.796 27.3341 13.416 27.3221 12.151 27.2641C8.891 27.1151 7.38 25.5651 7.232 22.3441C7.174 21.0791 7.162 20.7001 7.162 17.4951C7.162 14.2911 7.175 13.9121 7.232 12.6461C7.381 9.41912 8.896 7.87512 12.151 7.72712C13.417 7.67012 13.796 7.65812 17 7.65812ZM17 5.49512C13.741 5.49512 13.333 5.50912 12.053 5.56712C7.695 5.76712 5.273 8.18512 5.073 12.5471C5.014 13.8281 5 14.2361 5 17.4951C5 20.7541 5.014 21.1631 5.072 22.4431C5.272 26.8011 7.69 29.2231 12.052 29.4231C13.333 29.4811 13.741 29.4951 17 29.4951C20.259 29.4951 20.668 29.4811 21.948 29.4231C26.302 29.2231 28.73 26.8051 28.927 22.4431C28.986 21.1631 29 20.7541 29 17.4951C29 14.2361 28.986 13.8281 28.928 12.5481C28.732 8.19412 26.311 5.76812 21.949 5.56812C20.668 5.50912 20.259 5.49512 17 5.49512ZM17 11.3331C13.597 11.3331 10.838 14.0921 10.838 17.4951C10.838 20.8981 13.597 23.6581 17 23.6581C20.403 23.6581 23.162 20.8991 23.162 17.4951C23.162 14.0921 20.403 11.3331 17 11.3331ZM17 21.4951C14.791 21.4951 13 19.7051 13 17.4951C13 15.2861 14.791 13.4951 17 13.4951C19.209 13.4951 21 15.2861 21 17.4951C21 19.7051 19.209 21.4951 17 21.4951ZM23.406 9.65012C22.61 9.65012 21.965 10.2951 21.965 11.0901C21.965 11.8851 22.61 12.5301 23.406 12.5301C24.201 12.5301 24.845 11.8851 24.845 11.0901C24.845 10.2951 24.201 9.65012 23.406 9.65012Z" fill="white"/>
</g>
<defs>
<clipPath id="clip0_1181_7963">
<rect width="24" height="24" fill="white" transform="translate(5 5.49512)"/>
</clipPath>
</defs>
</svg>
